<svg width="23" height="25" viewBox="0 0 23 25" fill="none" xmlns="http://www.w3.org/2000/svg">
<path d="M11.9062 12.5C15.3584 12.5 18.1562 9.70215 18.1562 6.25C18.1562 2.79785 15.3584 0 11.9062 0C8.4541 0 5.65625 2.79785 5.65625 6.25C5.65625 9.70215 8.4541 12.5 11.9062 12.5ZM16.2813 14.0625H15.4658C14.3818 14.5605 13.1758 14.8438 11.9062 14.8438C10.6367 14.8438 9.43555 14.5605 8.34668 14.0625H7.53125C3.9082 14.0625 0.96875 17.002 0.96875 20.625V22.6562C0.96875 23.9502 2.01855 25 3.3125 25H20.5C21.7939 25 22.8438 23.9502 22.8438 22.6562V20.625C22.8438 17.002 19.9043 14.0625 16.2813 14.0625Z" fill="#072048"/>
</svg>
