<svg width="16" height="30" viewBox="0 0 16 30" fill="none" xmlns="http://www.w3.org/2000/svg">
<path fill-rule="evenodd" clip-rule="evenodd" d="M15.6643 29.6611C15.5582 29.7685 15.4321 29.8537 15.2933 29.9119C15.1545 29.9701 15.0057 30 14.8554 30C14.7051 30 14.5563 29.9701 14.4175 29.9119C14.2787 29.8537 14.1526 29.7685 14.0465 29.6611L0.335669 15.8165C0.229266 15.7094 0.144847 15.582 0.0872472 15.4419C0.0296472 15.3017 -2.09485e-06 15.1515 -2.10812e-06 14.9997C-2.12138e-06 14.8479 0.0296471 14.6977 0.0872471 14.5575C0.144847 14.4174 0.229266 14.29 0.335669 14.1829L14.0465 0.33834C14.261 0.121704 14.552 -4.14404e-07 14.8554 -4.40929e-07C15.1588 -4.67454e-07 15.4498 0.121704 15.6643 0.33834C15.8789 0.554976 15.9994 0.848797 15.9994 1.15517C15.9994 1.46154 15.8789 1.75536 15.6643 1.97199L2.76019 14.9997L15.6643 28.0274C15.7707 28.1346 15.8552 28.2619 15.9128 28.402C15.9704 28.5422 16 28.6925 16 28.8442C16 28.996 15.9704 29.1462 15.9128 29.2864C15.8552 29.4266 15.7707 29.5539 15.6643 29.6611V29.6611Z" fill="#072048"/>
</svg>
