<svg width="16" height="30" viewBox="0 0 16 30" fill="none" xmlns="http://www.w3.org/2000/svg">
<path fill-rule="evenodd" clip-rule="evenodd" d="M0.335671 0.338946C0.441805 0.231505 0.567889 0.146262 0.706699 0.0881004C0.84551 0.0299385 0.994321 0 1.14461 0C1.29489 0 1.4437 0.0299385 1.58252 0.0881004C1.72133 0.146262 1.84741 0.231505 1.95354 0.338946L15.6643 14.1835C15.7707 14.2906 15.8552 14.418 15.9128 14.5581C15.9704 14.6983 16 14.8485 16 15.0003C16 15.1521 15.9704 15.3023 15.9128 15.4425C15.8552 15.5826 15.7707 15.71 15.6643 15.8171L1.95354 29.6617C1.739 29.8783 1.44802 30 1.14461 30C0.841197 30 0.550214 29.8783 0.335671 29.6617C0.121128 29.445 0.00059821 29.1512 0.00059821 28.8448C0.00059821 28.5385 0.121128 28.2446 0.335671 28.028L13.2398 15.0003L0.335671 1.9726C0.229268 1.86543 0.144848 1.73812 0.0872482 1.59795C0.0296482 1.45779 0 1.30753 0 1.15577C0 1.00402 0.0296482 0.853758 0.0872482 0.713594C0.144848 0.573429 0.229268 0.446116 0.335671 0.338946V0.338946Z" fill="#072048"/>
</svg>
