<svg width="26" height="23" viewBox="0 0 26 23" fill="none" xmlns="http://www.w3.org/2000/svg">
<path d="M23.5938 13.467L25.6455 4.43919C25.7937 3.78737 25.2982 3.16666 24.6298 3.16666H7.58195L7.18412 1.22178C7.08498 0.737019 6.65842 0.388885 6.16359 0.388885H1.71354C1.13824 0.388885 0.671875 0.855248 0.671875 1.43055V2.125C0.671875 2.7003 1.13824 3.16666 1.71354 3.16666H4.74666L7.79562 18.0727C7.06619 18.4922 6.57465 19.2787 6.57465 20.1806C6.57465 21.5229 7.66285 22.6111 9.00521 22.6111C10.3476 22.6111 11.4358 21.5229 11.4358 20.1806C11.4358 19.5003 11.1559 18.8856 10.7056 18.4444H19.8048C19.3545 18.8856 19.0747 19.5003 19.0747 20.1806C19.0747 21.5229 20.1629 22.6111 21.5052 22.6111C22.8476 22.6111 23.9358 21.5229 23.9358 20.1806C23.9358 19.2182 23.3764 18.3866 22.5652 17.9928L22.8046 16.9392C22.9527 16.2874 22.4573 15.6667 21.7889 15.6667H10.1388L9.85469 14.2778H22.578C23.0644 14.2778 23.486 13.9412 23.5938 13.467Z" fill="#072048"/>
</svg>
