<svg width="13" height="13" viewBox="0 0 13 13" fill="none" xmlns="http://www.w3.org/2000/svg">
<path d="M12.1875 3.97729V1.93115C12.1875 1.82721 12.1664 1.7243 12.1256 1.62829C12.0847 1.53228 12.0248 1.44505 11.9493 1.37158L10.8004 0.252687C10.6481 0.104365 10.4415 0.0210278 10.2261 0.0209961L4.0625 0.0209961C3.84701 0.0209961 3.64035 0.104361 3.48798 0.252751C3.3356 0.401141 3.25 0.602401 3.25 0.812256V11.8899C3.25 12.0997 3.3356 12.301 3.48798 12.4494C3.64035 12.5978 3.84701 12.6812 4.0625 12.6812H12.1875C12.403 12.6812 12.6097 12.5978 12.762 12.4494C12.9144 12.301 13 12.0997 13 11.8899V4.76855C13 4.5587 12.9144 4.35744 12.762 4.20905C12.6097 4.06066 12.403 3.97729 12.1875 3.97729ZM7.3125 10.703C7.3125 10.8079 7.2697 10.9086 7.19351 10.9828C7.11733 11.057 7.01399 11.0986 6.90625 11.0986H6.09375C5.98601 11.0986 5.88267 11.057 5.80649 10.9828C5.7303 10.9086 5.6875 10.8079 5.6875 10.703V9.91174C5.6875 9.80682 5.7303 9.70619 5.80649 9.63199C5.88267 9.5578 5.98601 9.51611 6.09375 9.51611H6.90625C7.01399 9.51611 7.11733 9.5578 7.19351 9.63199C7.2697 9.70619 7.3125 9.80682 7.3125 9.91174V10.703ZM7.3125 7.53796C7.3125 7.64289 7.2697 7.74352 7.19351 7.81772C7.11733 7.89191 7.01399 7.93359 6.90625 7.93359H6.09375C5.98601 7.93359 5.88267 7.89191 5.80649 7.81772C5.7303 7.74352 5.6875 7.64289 5.6875 7.53796V6.7467C5.6875 6.64178 5.7303 6.54115 5.80649 6.46695C5.88267 6.39276 5.98601 6.35107 6.09375 6.35107H6.90625C7.01399 6.35107 7.11733 6.39276 7.19351 6.46695C7.2697 6.54115 7.3125 6.64178 7.3125 6.7467V7.53796ZM10.5625 10.703C10.5625 10.8079 10.5197 10.9086 10.4435 10.9828C10.3673 11.057 10.264 11.0986 10.1562 11.0986H9.34375C9.23601 11.0986 9.13267 11.057 9.05649 10.9828C8.9803 10.9086 8.9375 10.8079 8.9375 10.703V9.91174C8.9375 9.80682 8.9803 9.70619 9.05649 9.63199C9.13267 9.5578 9.23601 9.51611 9.34375 9.51611H10.1562C10.264 9.51611 10.3673 9.5578 10.4435 9.63199C10.5197 9.70619 10.5625 9.80682 10.5625 9.91174V10.703ZM10.5625 7.53796C10.5625 7.64289 10.5197 7.74352 10.4435 7.81772C10.3673 7.89191 10.264 7.93359 10.1562 7.93359H9.34375C9.23601 7.93359 9.13267 7.89191 9.05649 7.81772C8.9803 7.74352 8.9375 7.64289 8.9375 7.53796V6.7467C8.9375 6.64178 8.9803 6.54115 9.05649 6.46695C9.13267 6.39276 9.23601 6.35107 9.34375 6.35107H10.1562C10.264 6.35107 10.3673 6.39276 10.4435 6.46695C10.5197 6.54115 10.5625 6.64178 10.5625 6.7467V7.53796ZM10.5625 4.76855H4.875V1.60352H8.9375V2.79041C8.9375 2.89533 8.9803 2.99596 9.05649 3.07016C9.13267 3.14435 9.23601 3.18604 9.34375 3.18604H10.5625V4.76855ZM1.625 3.18604H0.8125C0.597012 3.18604 0.390349 3.2694 0.237976 3.41779C0.0856024 3.56618 0 3.76744 0 3.97729L0 11.8899C0 12.0997 0.0856024 12.301 0.237976 12.4494C0.390349 12.5978 0.597012 12.6812 0.8125 12.6812H1.625C1.84049 12.6812 2.04715 12.5978 2.19952 12.4494C2.3519 12.301 2.4375 12.0997 2.4375 11.8899V3.97729C2.4375 3.76744 2.3519 3.56618 2.19952 3.41779C2.04715 3.2694 1.84049 3.18604 1.625 3.18604V3.18604Z" fill="#072048"/>
</svg>
