<svg width="23" height="23" viewBox="0 0 23 23" fill="none" xmlns="http://www.w3.org/2000/svg">
<path d="M11.5619 0.389999C5.42586 0.389999 0.451904 5.36396 0.451904 11.5C0.451904 17.636 5.42586 22.61 11.5619 22.61C17.6979 22.61 22.6719 17.636 22.6719 11.5C22.6719 5.36396 17.6979 0.389999 11.5619 0.389999ZM15.2483 16.4099C15.0736 16.5837 14.8904 16.7661 14.7417 16.9152C14.6077 17.0496 14.5132 17.2154 14.4653 17.395C14.3976 17.6486 14.343 17.9048 14.2516 18.1508L13.4725 20.2496C12.8561 20.384 12.2182 20.4597 11.5619 20.4597V19.2331C11.6376 18.6677 11.2196 17.6087 10.5481 16.9372C10.2793 16.6684 10.1283 16.3037 10.1283 15.9234V14.4894C10.1283 13.9679 9.84746 13.4886 9.39096 13.2364C8.74721 12.8802 7.83153 12.3825 7.20436 12.0667C6.69007 11.8078 6.21431 11.478 5.78649 11.0923L5.75065 11.0601C5.44471 10.7839 5.17307 10.472 4.94159 10.131C4.52138 9.51409 3.83687 8.4994 3.39202 7.83997C4.30904 5.80164 5.96165 4.16471 8.01521 3.27546L9.09081 3.81349C9.56747 4.05182 10.1283 3.70553 10.1283 3.17243V2.66621C10.4863 2.60842 10.8505 2.57168 11.221 2.55779L12.4888 3.82559C12.7688 4.10558 12.7688 4.55939 12.4888 4.83938L12.2787 5.04903L11.8154 5.51225C11.6757 5.65202 11.6757 5.87915 11.8154 6.01892L12.0256 6.22902C12.1653 6.36879 12.1653 6.59592 12.0256 6.73569L11.6672 7.09408C11.5999 7.16124 11.5087 7.19894 11.4136 7.19891H11.0109C10.9177 7.19891 10.8281 7.23519 10.7609 7.3006L10.3165 7.7329C10.262 7.78595 10.2258 7.85493 10.2131 7.9299C10.2004 8.00486 10.2118 8.08193 10.2457 8.14998L10.9441 9.54724C11.0633 9.78557 10.8899 10.066 10.6238 10.066H10.3712C10.2847 10.066 10.2014 10.0346 10.1364 9.9782L9.72068 9.61712C9.6266 9.53551 9.5129 9.47979 9.39076 9.45544C9.26862 9.43109 9.14225 9.43895 9.02406 9.47825L7.6277 9.9437C7.52109 9.97925 7.42838 10.0474 7.36269 10.1386C7.297 10.2298 7.26166 10.3393 7.2617 10.4517C7.2617 10.6547 7.37638 10.8397 7.55782 10.9306L8.05418 11.1788C8.47573 11.3898 8.94074 11.4996 9.41202 11.4996C9.8833 11.4996 10.424 12.7221 10.8456 12.9331H13.8359C14.2162 12.9331 14.5804 13.0841 14.8496 13.3529L15.4629 13.9662C15.7191 14.2225 15.863 14.57 15.863 14.9325C15.8629 15.2071 15.8085 15.479 15.7031 15.7325C15.5976 15.986 15.4431 16.2163 15.2483 16.4099V16.4099ZM19.1328 12.3176C18.8734 12.2526 18.6472 12.0936 18.4989 11.8709L17.6934 10.6627C17.5756 10.4862 17.5127 10.2787 17.5127 10.0665C17.5127 9.8542 17.5756 9.64671 17.6934 9.47018L18.571 8.15401C18.675 7.99856 18.8174 7.87223 18.985 7.7889L19.5665 7.49816C20.1721 8.70413 20.5216 10.0606 20.5216 11.5C20.5216 11.8884 20.4884 12.2687 20.44 12.6442L19.1328 12.3176Z" fill="#072048"/>
</svg>
