<svg width="178" height="45" viewBox="0 0 178 45" fill="none" xmlns="http://www.w3.org/2000/svg">
<path d="M4.39917 41.7375H42.7664V3.2625H4.39917V41.7375ZM35.3817 18.798H27.2744V10.668H35.3817V18.798ZM11.7824 10.668H19.8942V26.202H35.3817V34.332H11.7824V10.668ZM67.7507 3.2625C63.9565 3.2625 60.2475 4.39077 57.0929 6.50461C53.9381 8.61846 51.4793 11.6229 50.0273 15.1381C48.5754 18.6534 48.1956 22.5213 48.9357 26.253C49.676 29.9847 51.5029 33.4125 54.1858 36.1029C56.8687 38.7934 60.2869 40.6255 64.0081 41.3679C67.7295 42.1101 71.5866 41.7292 75.092 40.2732C78.5974 38.8171 81.5933 36.3514 83.7013 33.1878C85.8092 30.0241 86.9344 26.3047 86.9344 22.5C86.9284 17.3997 84.9053 12.5101 81.309 8.90362C77.7126 5.29717 72.8368 3.26845 67.7507 3.2625ZM67.7507 34.332C65.4172 34.332 63.1359 33.6381 61.1956 32.3379C59.2554 31.0378 57.743 29.19 56.85 27.0279C55.957 24.8659 55.7233 22.4869 56.1785 20.1916C56.6338 17.8965 57.7576 15.7882 59.4076 14.1335C61.0578 12.4788 63.1601 11.3519 65.4489 10.8954C67.7376 10.4388 70.1099 10.6731 72.266 11.5687C74.4219 12.4642 76.2647 13.9807 77.5611 15.9265C78.8577 17.8722 79.5496 20.1598 79.5496 22.5C79.5448 25.6366 78.3002 28.6434 76.0885 30.8613C73.8768 33.0792 70.8785 34.3272 67.7507 34.332ZM155.583 3.2625C151.788 3.26221 148.079 4.39021 144.924 6.50388C141.769 8.61754 139.31 11.6219 137.858 15.1371C136.406 18.6522 136.026 22.5204 136.766 26.2521C137.506 29.9839 139.333 33.4119 142.016 36.1024C144.698 38.793 148.117 40.6254 151.839 41.3677C155.559 42.1101 159.416 41.7292 162.922 40.2733C166.427 38.8173 169.423 36.3516 171.531 33.1879C173.64 30.0243 174.765 26.3049 174.765 22.5C174.759 17.4 172.736 12.5105 169.14 8.90415C165.545 5.29774 160.668 3.26886 155.583 3.2625ZM155.583 34.332C153.249 34.3323 150.968 33.6385 149.027 32.3386C147.087 31.0387 145.574 29.1909 144.681 27.0289C143.787 24.867 143.554 22.4878 144.009 20.1925C144.464 17.8974 145.587 15.789 147.237 14.134C148.887 12.4792 150.99 11.3521 153.279 10.8955C155.568 10.4388 157.94 10.673 160.095 11.5685C162.252 12.464 164.095 13.9805 165.392 15.9264C166.687 17.8722 167.38 20.1598 167.38 22.5C167.375 25.6363 166.131 28.6428 163.919 30.8607C161.708 33.0786 158.71 34.3269 155.583 34.332ZM111.666 3.2625C107.872 3.2625 104.163 4.39077 101.008 6.50461C97.8532 8.61846 95.3944 11.6229 93.9425 15.1381C92.4905 18.6534 92.1107 22.5213 92.8508 26.253C93.5911 29.9847 95.4181 33.4125 98.1009 36.1029C100.784 38.7934 104.202 40.6255 107.923 41.3679C111.645 42.1101 115.502 41.7292 119.007 40.2732C122.513 38.8171 125.508 36.3514 127.616 33.1878C129.724 30.0241 130.85 26.3047 130.85 22.5C130.844 17.3997 128.82 12.5101 125.224 8.90362C121.628 5.29717 116.752 3.26845 111.666 3.2625ZM111.666 34.332C109.492 34.333 107.359 33.7317 105.505 32.5942C103.65 31.4568 102.144 29.8276 101.154 27.8863C100.165 25.945 99.7291 23.7672 99.8958 21.5934C100.062 19.4194 100.825 17.334 102.099 15.5671C103.373 13.8004 105.109 12.4209 107.115 11.5811C109.121 10.7412 111.32 10.4736 113.469 10.8079C115.617 11.1421 117.632 12.0651 119.29 13.4751C120.949 14.8851 122.186 16.7272 122.866 18.798H111.666V26.202H122.866C122.087 28.5649 120.586 30.622 118.576 32.0812C116.565 33.5406 114.148 34.3279 111.666 34.332Z" fill="#072048"/>
</svg>
