<svg width="285" height="72" viewBox="0 0 285 72" fill="none" xmlns="http://www.w3.org/2000/svg">
<path d="M7.04358 66.7802H68.4743V5.22021H7.04358V66.7802ZM56.6504 30.077H43.6697V17.069H56.6504V30.077ZM18.8651 17.069H31.853V41.9234H56.6504V54.9314H18.8651V17.069ZM108.477 5.22021C102.402 5.22021 96.4637 7.02545 91.4127 10.4076C86.3615 13.7898 82.4247 18.5969 80.0999 24.2213C77.7751 29.8457 77.167 36.0343 78.3521 42.005C79.5373 47.9757 82.4625 53.4602 86.7581 57.7649C91.0537 62.0697 96.5267 65.0011 102.485 66.1889C108.443 67.3764 114.619 66.767 120.232 64.4373C125.844 62.1077 130.641 58.1625 134.016 53.1007C137.391 48.0389 139.193 42.0878 139.193 36.0002C139.183 27.8397 135.944 20.0163 130.186 14.246C124.427 8.4757 116.621 5.22974 108.477 5.22021ZM108.477 54.9314C104.741 54.9314 101.088 53.8212 97.9816 51.7409C94.8751 49.6608 92.4536 46.7042 91.0238 43.2449C89.594 39.7857 89.2199 35.9793 89.9487 32.3069C90.6777 28.6346 92.4771 25.2614 95.1189 22.6138C97.761 19.9663 101.127 18.1632 104.792 17.4328C108.456 16.7023 112.255 17.0772 115.707 18.5101C119.159 19.9429 122.109 22.3694 124.185 25.4827C126.261 28.5957 127.369 32.256 127.369 36.0002C127.361 41.0189 125.368 45.8297 121.827 49.3783C118.286 52.9269 113.485 54.9237 108.477 54.9314ZM249.107 5.22021C243.031 5.21976 237.093 7.02456 232.042 10.4064C226.99 13.7883 223.053 18.5953 220.728 24.2196C218.403 29.8437 217.794 36.0329 218.979 42.0036C220.164 47.9745 223.089 53.4593 227.385 57.7641C231.68 62.069 237.153 65.0009 243.112 66.1886C249.069 67.3764 255.245 66.767 260.859 64.4376C266.47 62.1079 271.267 58.1628 274.642 53.1009C278.019 48.0391 279.82 42.0881 279.82 36.0002C279.81 27.8402 276.572 20.0171 270.815 14.2469C265.057 8.47661 257.25 5.23039 249.107 5.22021ZM249.107 54.9314C245.371 54.9319 241.718 53.8219 238.611 51.7421C235.504 49.6622 233.082 46.7057 231.652 43.2465C230.221 39.7874 229.847 35.9808 230.576 32.3083C231.304 28.6361 233.103 25.2626 235.745 22.6147C238.387 19.9669 241.754 18.1636 245.419 17.433C249.083 16.7023 252.881 17.0771 256.332 18.5099C259.786 19.9426 262.737 22.3691 264.813 25.4825C266.887 28.5957 267.996 32.256 267.996 36.0002C267.989 41.0184 265.996 45.8287 262.454 49.3773C258.914 52.926 254.115 54.9233 249.107 54.9314ZM178.791 5.22021C172.716 5.22021 166.777 7.02545 161.726 10.4076C156.675 13.7898 152.738 18.5969 150.413 24.2213C148.089 29.8457 147.481 36.0343 148.666 42.005C149.851 47.9757 152.776 53.4602 157.072 57.7649C161.367 62.0697 166.84 65.0011 172.798 66.1889C178.757 67.3764 184.932 66.767 190.545 64.4373C196.158 62.1077 200.955 58.1625 204.33 53.1007C207.705 48.0389 209.506 42.0878 209.506 36.0002C209.497 27.8397 206.257 20.0163 200.499 14.246C194.741 8.4757 186.934 5.22974 178.791 5.22021ZM178.791 54.9314C175.31 54.9331 171.896 53.9709 168.926 52.151C165.956 50.3311 163.546 47.7245 161.961 44.6184C160.376 41.5123 159.679 38.0277 159.945 34.5497C160.212 31.0713 161.433 27.7346 163.472 24.9077C165.512 22.0808 168.292 19.8737 171.504 18.5299C174.717 17.1861 178.237 16.758 181.677 17.2928C185.117 17.8276 188.343 19.3044 190.998 21.5604C193.653 23.8164 195.635 26.7638 196.724 30.077H178.791V41.9234H196.724C195.477 45.7041 193.073 48.9955 189.854 51.3302C186.635 53.6652 182.765 54.9249 178.791 54.9314Z" fill="white"/>
</svg>
