<svg width="26" height="19" viewBox="0 0 26 19" fill="none" xmlns="http://www.w3.org/2000/svg">
<path d="M25.1113 10.3296L16.9082 18.5327C16.1758 19.2651 14.9062 18.7524 14.9062 17.7026V13.0151H8.26562C7.61621 13.0151 7.09375 12.4926 7.09375 11.8432V7.15573C7.09375 6.50632 7.61621 5.98386 8.26562 5.98386H14.9062V1.29636C14.9062 0.251435 16.1709 -0.266143 16.9082 0.466279L25.1113 8.6694C25.5654 9.12839 25.5654 9.87058 25.1113 10.3296ZM10.2188 18.2885V16.3354C10.2188 16.0132 9.95508 15.7495 9.63281 15.7495H5.53125C4.66699 15.7495 3.96875 15.0512 3.96875 14.187V4.81198C3.96875 3.94772 4.66699 3.24948 5.53125 3.24948H9.63281C9.95508 3.24948 10.2188 2.98581 10.2188 2.66354V0.71042C10.2188 0.388154 9.95508 0.124482 9.63281 0.124482H5.53125C2.94336 0.124482 0.84375 2.22409 0.84375 4.81198V14.187C0.84375 16.7749 2.94336 18.8745 5.53125 18.8745H9.63281C9.95508 18.8745 10.2188 18.6108 10.2188 18.2885Z" fill="#072048"/>
</svg>
