<svg width="15" height="12" viewBox="0 0 15 12" fill="none" xmlns="http://www.w3.org/2000/svg">
<path d="M14.3889 3.905C14.5006 3.81852 14.6667 3.89942 14.6667 4.03612V9.74103C14.6667 10.4803 14.0509 11.0801 13.2917 11.0801H1.37501C0.615889 11.0801 0 10.4803 0 9.74103V4.03891C0 3.89942 0.163282 3.82131 0.277866 3.90779C0.919536 4.3932 1.77032 5.00972 4.69221 7.07688C5.29664 7.50649 6.31644 8.41035 7.33337 8.40477C8.35604 8.41314 9.39589 7.48975 9.9774 7.07688C12.8993 5.00972 13.7472 4.39041 14.3889 3.905ZM7.33337 7.50928C7.99796 7.52044 8.95474 6.69469 9.43599 6.35435C13.2373 3.66788 13.5266 3.43354 14.4032 2.76402C14.5694 2.63848 14.6667 2.4432 14.6667 2.23677V1.70673C14.6667 0.967459 14.0509 0.367676 13.2917 0.367676H1.37501C0.615889 0.367676 0 0.967459 0 1.70673V2.23677C0 2.4432 0.0973964 2.63569 0.263543 2.76402C1.14011 3.43075 1.42944 3.66788 5.23076 6.35435C5.71201 6.69469 6.66879 7.52044 7.33337 7.50928Z" fill="#072048"/>
</svg>
