<svg width="15" height="16" viewBox="0 0 15 16" fill="none" xmlns="http://www.w3.org/2000/svg">
<path d="M14.4556 1.40287L11.4086 0.718111C11.0776 0.643929 10.7377 0.812265 10.603 1.1147L9.19671 4.31022C9.07366 4.58983 9.15569 4.91794 9.39886 5.1091L11.1743 6.52426C10.1196 8.71262 8.27677 10.5329 5.9828 11.58L4.52966 9.85102C4.33044 9.61421 3.99645 9.53432 3.70933 9.65415L0.428045 11.0237C0.114564 11.1578 -0.0582893 11.4887 0.0178835 11.8111L0.721017 14.7784C0.79426 15.0865 1.07551 15.3091 1.40657 15.3091C8.90959 15.3091 15.0005 9.38881 15.0005 2.0705C15.0005 1.75095 14.7749 1.47419 14.4556 1.40287Z" fill="#072048"/>
</svg>
