<svg width="25" height="25" viewBox="0 0 25 25" fill="none" xmlns="http://www.w3.org/2000/svg">
<path d="M24.9687 12.4771C24.9811 19.149 19.54 24.6047 12.8682 24.6094C9.98656 24.6114 7.33969 23.6069 5.25966 21.9282C4.7188 21.4916 4.67837 20.681 5.16987 20.1895L5.72002 19.6394C6.14038 19.219 6.81147 19.173 7.27719 19.5425C8.80966 20.7586 10.7491 21.4844 12.8594 21.4844C17.8254 21.4844 21.8437 17.4653 21.8437 12.5C21.8437 7.53397 17.8246 3.51566 12.8594 3.51566C10.4759 3.51566 8.31108 4.44188 6.70371 5.95374L9.18193 8.43196C9.67411 8.92415 9.32553 9.76566 8.62953 9.76566H1.53125C1.09976 9.76566 0.75 9.4159 0.75 8.98441V1.88611C0.75 1.19012 1.5915 0.841534 2.08369 1.33367L4.49443 3.74442C6.6684 1.66683 9.61484 0.390656 12.8594 0.390656C19.5395 0.390656 24.9564 5.79984 24.9687 12.4771ZM16.1351 16.324L16.6148 15.7073C17.0121 15.1964 16.9201 14.4601 16.4092 14.0628L14.4219 12.5171V7.42191C14.4219 6.77469 13.8972 6.25003 13.25 6.25003H12.4687C11.8215 6.25003 11.2969 6.77469 11.2969 7.42191V14.0455L14.4907 16.5296C15.0016 16.9269 15.7378 16.8349 16.1351 16.324V16.324Z" fill="#072048"/>
</svg>
