<svg width="23" height="22" viewBox="0 0 23 22" fill="none" xmlns="http://www.w3.org/2000/svg">
<path d="M17.7263 15.3262L20.2253 12.4465C20.8285 11.7514 20.5802 10.564 19.7671 10.2628L18.2754 9.71033V3.94786C18.2754 3.22096 17.764 2.63168 17.1332 2.63168H14.8488V0.986462C14.8488 0.441276 14.4652 -0.000671387 13.9921 -0.000671387H8.85215C8.37903 -0.000671387 7.99549 0.441276 7.99549 0.986462V2.63168H5.71107C5.08024 2.63168 4.56885 3.22096 4.56885 3.94786V9.71033L3.07712 10.2628C2.26497 10.5636 2.01508 11.7507 2.61895 12.4465L5.11797 15.3262C4.49133 17.1214 3.05496 18.4258 0.85666 18.4258C0.383534 18.4258 0 18.8678 0 19.4129V20.071C0 20.6162 0.383534 21.0582 0.85666 21.0582C3.03483 21.0582 4.69375 20.2105 5.97014 18.6152C6.48481 20.0477 7.71069 21.0582 9.13771 21.0582H13.7066C15.1336 21.0582 16.3595 20.0477 16.8741 18.6152C18.1503 20.2102 19.8091 21.0582 21.9876 21.0582C22.4607 21.0582 22.8443 20.6162 22.8443 20.071V19.4129C22.8443 18.8678 22.4607 18.4258 21.9876 18.4258C19.8168 18.4258 18.3632 17.1507 17.7263 15.3262ZM6.85328 5.26404H15.991V8.86424L11.7717 7.30148C11.5444 7.21729 11.2999 7.21729 11.0726 7.30148L6.85328 8.86424V5.26404Z" fill="white"/>
</svg>
