<svg width="49" height="40" viewBox="0 0 49 40" fill="none" xmlns="http://www.w3.org/2000/svg">
<path d="M15.3921 40C33.8835 40 43.9989 24.607 43.9989 11.2815C43.9989 10.8508 43.9989 10.4139 43.9806 9.98314C45.9499 8.55086 47.6496 6.77762 49 4.7465C47.1604 5.56138 45.211 6.09844 43.2149 6.34026C45.3174 5.07767 46.8922 3.0911 47.6464 0.749785C45.671 1.92549 43.509 2.75083 41.2549 3.18965C39.7396 1.56828 37.7343 0.494161 35.5498 0.133687C33.3652 -0.226787 31.1233 0.146499 29.1713 1.19572C27.2194 2.24495 25.6662 3.91155 24.7525 5.93739C23.8388 7.96322 23.6155 10.2352 24.1172 12.4015C20.1198 12.2001 16.2092 11.1568 12.6391 9.33931C9.06889 7.52179 5.91885 4.97062 3.39325 1.85126C2.1111 4.07602 1.71982 6.70762 2.29885 9.21169C2.87789 11.7158 4.38383 13.9046 6.51087 15.3336C4.91697 15.2792 3.3581 14.8492 1.96 14.0783V14.2168C1.96275 16.5473 2.76638 18.8055 4.23505 20.6095C5.70372 22.4136 7.74735 23.6528 10.0205 24.1178C9.15768 24.3566 8.26639 24.4756 7.37144 24.4716C6.74051 24.4735 6.11085 24.4148 5.49106 24.2962C6.13353 26.3024 7.38452 28.0565 9.06882 29.3128C10.7531 30.5691 12.7863 31.2646 14.8838 31.302C11.3207 34.1135 6.91942 35.6384 2.38875 35.631C1.59042 35.6344 0.792646 35.5882 0 35.4925C4.59839 38.4378 9.93872 40.0017 15.3921 40V40Z" fill="white"/>
</svg>
